<?xml version="1.0" standalone="no"?><!-- Generator: Gravit.io --><svg xmlns="http://www.w3.org/2000/svg" xmlns:xlink="http://www.w3.org/1999/xlink" style="isolation:isolate" viewBox="0 0 1000 1000" width="1000" height="1000"><defs><clipPath id="_clipPath_oCWIb6aFdrx0SnXDzkatkuGgzbFpLmcL"><rect width="1000" height="1000"/></clipPath></defs><g clip-path="url(#_clipPath_oCWIb6aFdrx0SnXDzkatkuGgzbFpLmcL)"><g transform="matrix(1,0,0,1,124.978,733.255)"><text transform="matrix(1,0,0,1,2.988,135)" style="font-family:&quot;Calibri Light&quot;;font-weight:400;font-size:180px;font-style:italic;fill:#000000;stroke:none;">Woolwerx</text></g><path d=" M 675.218 463.824 C 668.707 592.108 563.113 694.255 433.992 694.255 C 429.358 694.255 424.753 694.123 420.196 693.816 C 516.808 687.922 596.232 617.516 616.508 524.872 L 675.218 463.824 L 675.218 463.824 Z  M 406.987 262.252 C 466.306 262.252 520.034 286.543 558.886 325.776 Q 444.914 410.058 324.472 421.253 C 313.103 422.31 263.75 413.692 270.462 370.252 Q 294.281 265.162 406.987 262.252 L 406.987 262.252 Z  M 192.583 459.185 C 192.49 456.553 192.447 453.908 192.447 451.253 C 192.447 317.137 300.68 208.251 433.992 208.251 C 503.118 208.251 565.5 237.527 609.547 284.416 L 609.547 284.416 Q 679.809 221.582 747.55 130.251 Q 557.562 485.454 312.47 481.253 C 222.633 479.714 217.617 442.492 216.452 406.253 Q 215.859 387.795 222.261 368.428 C 206.393 395.417 196.194 426.176 193.321 459.04 Q 193.68 464.532 193.725 466.398 C 204.311 525.769 241.847 553.807 306.468 550.254 Q 471.156 541.198 613.496 419.552 L 613.496 419.552 C 610.571 409.117 606.887 399.001 602.506 389.27 L 649.774 342.01 C 654.82 352.068 659.191 362.527 662.828 373.325 Q 746.81 287.513 822.564 160.251 Q 617.387 593.956 323.244 628.478 C 310.771 629.942 298.055 631.194 285.465 631.255 C 206.706 631.634 176.868 575.408 177.445 535.254 C 177.805 510.178 182.364 487.248 191.122 466.463 Q 191.7 464.764 192.583 459.185 Z " fill-rule="evenodd" fill="rgb(0,101,189)"/></g></svg>